<?xml version="1.0" encoding="UTF-8"?><svg id="Layer_2" xmlns="http://www.w3.org/2000/svg" viewBox="0 0 228.7 265.26"><defs><style>.cls-1{letter-spacing:-.01em;}.cls-2,.cls-3{fill:none;stroke:#eb9daa;stroke-miterlimit:10;}.cls-4{fill:#2a306c;}.cls-3{stroke-width:3px;}.cls-5{fill:#231f20;font-family:BrandonGrotesque-Regular, 'Brandon Grotesque';font-size:48px;}.cls-6{fill:#eb9daa;}</style></defs><g id="Layer_3"><path class="cls-6" d="m60.61,48.31l.16-.21c-.44-.42-.88-.83-1.34-1.23-8.55-7.48-19.67-10.56-29.18-7.07-14.03,5.16-19.24,22.67-11.64,39.13l37.73,81.68c14.03-5.16,19.24-22.67,11.64-39.13l-27.19-58.86"/><path class="cls-6" d="m15.38,72.79c-7.29-15.78,1.19-33.87,18.94-40.4L122.46,0c7.29,15.78-1.19,33.87-18.94,40.4"/><path class="cls-4" d="m184.6,148.33c-5.3-12.48-22.9-16.95-39.31-9.98l-58.7,24.93-.05-.12c-7.63,3.24-15.81,1.16-18.28-4.64-1.67-3.94-.29-8.57,3.16-12.16.2-.21.42-.42.63-.63l-.21-.14c-.42.4-.83.8-1.22,1.21-7.41,7.72-10.39,17.69-6.79,26.15,5.3,12.48,22.9,16.95,39.31,9.98l81.46-34.6Z"/><path class="cls-6" d="m65.78,130.71l-.21-.14c-.42.39-.83.79-1.22,1.2-7.41,7.66-10.39,17.56-6.79,25.95,5.3,12.38,22.9,16.82,39.31,9.9l81.46-34.34c-5.3-12.38-22.9-16.82-39.31-9.9l-58.7,24.74"/><path class="cls-6" d="m90.75,170.56c-15.74,6.64-33.94-.69-40.65-16.36L16.79,76.39c15.74-6.64,33.94.69,40.65,16.36"/><path class="cls-2" d="m47.77,76.47c3.97,7.13,9.04,13.64,14.98,19.24"/><path class="cls-3" d="m49.98,83.87c4.03,2.2,7.65,5.14,10.63,8.63"/><path class="cls-3" d="m44.29,65.75c3.9,10.92,9.4,23.35,20.66,26.11"/><path class="cls-3" d="m69.33,91.49c-7.64,8.12-7.19,21.74-.83,30.9,6.36,9.16,17.36,14.22,28.39,15.85,11.03,1.63,22.25.23,33.31-1.16"/><path class="cls-3" d="m86.43,131.88c6.79,7.29,16.6,11.69,26.57,11.92"/><path class="cls-3" d="m77.84,146.63c5.34,1.79,10.68,3.58,16.02,5.36"/><path class="cls-3" d="m75.42,136.67c6.84,3.04,13.68,6.09,20.52,9.13"/><path class="cls-3" d="m76.74,136.17c6.35,4.02,12.7,8.04,19.05,12.05"/><path class="cls-3" d="m81.09,148.78c5.65,2.61,11.29,5.21,16.94,7.82"/><path class="cls-3" d="m29.71,75.85c.95-7.74.25-16.33-1.88-22.93"/><path class="cls-2" d="m43.03,59.32c.22,4.55.43,9.12,1.3,13.6.87,4.47,2.42,8.88,5.08,12.58"/><path class="cls-2" d="m41.69,59.12c-.24,2.12-.48,4.27-.08,6.37.4,2.09,1.54,4.15,3.43,5.14"/><path class="cls-2" d="m45.27,60.55c-.2,3.83.16,7.7,1.08,11.42"/><path class="cls-2" d="m52.43,81.68c2.18,1.24,3.59,3.47,5.38,5.23,2.47,2.44,5.69,4.01,9.03,4.95s6.82,1.29,10.28,1.56"/><path class="cls-2" d="m54.63,94.15c3.51,1.67,6.69,4.04,9.27,6.94"/><path class="cls-2" d="m21.92,75.22c-.42-1.07-.84-2.14-1.26-3.2"/><path class="cls-2" d="m65.04,90.19c2.51.9,5.16,1.42,7.82,1.54"/><path class="cls-2" d="m64.41,102.38c2.05,5.71,4.09,11.42,6.14,17.13,1.5,4.17,3.11,8.52,6.4,11.49"/><path class="cls-2" d="m81.7,132.72c3.97,4.05,9.83,5.79,15.5,5.9,5.67.11,11.25-1.25,16.76-2.6,10.74-2.63,21.49-5.26,32.23-7.89"/><path class="cls-2" d="m85.51,134.67c2.57.94,5.15,1.88,7.84,2.36,2.83.51,5.73.49,8.61.48,3.99-.02,7.99-.05,11.98-.07"/><text class="cls-5" transform="translate(0 247.31) scale(1.14 1)"><tspan class="cls-1" x="0" y="0">E</tspan><tspan x="27.84" y="0">sther Lee</tspan></text><path class="cls-6" d="m23.41,79.41c9.65,0,9.67-15,0-15s-9.67,15,0,15h0Z"/><path class="cls-6" d="m22.9,79.41c9.65,0,9.67-15,0-15s-9.67,15,0,15h0Z"/><path class="cls-6" d="m34.35,66.71c-1.82,13.65,5.86,25.51,17.44,32.09,8.41,4.78,15.97-8.18,7.57-12.95-7.52-4.27-11.18-10.4-10.01-19.14.54-4.02-3.83-7.5-7.5-7.5-4.5,0-6.96,3.47-7.5,7.5h0Z"/><path class="cls-6" d="m41.8,82.23c7.65,10.13,15.48,18.77,28.65,20.53,4.02.54,7.5-3.83,7.5-7.5,0-4.5-3.47-6.96-7.5-7.5-6.82-.91-11.92-8.09-15.7-13.1-2.44-3.23-6.47-4.91-10.26-2.69-3.18,1.86-5.15,7.01-2.69,10.26h0Z"/><path class="cls-6" d="m58.51,98.17c3.03,1.76,6.39,3.06,9.87,3.58,2.07.31,3.89.35,5.78-.76,1.56-.91,3.04-2.69,3.45-4.48.81-3.56-1.09-8.61-5.24-9.23-1.33-.2-2.63-.48-3.91-.91-.27-.09-.54-.19-.81-.29-.52-.2-.36-.13.47.2-.66-.11-1.46-.74-2.03-1.07-3.4-1.97-8.37-.9-10.26,2.69s-.93,8.16,2.69,10.26h0Z"/><path class="cls-6" d="m57.26,94.86c-5.44,23.41,7.4,46.29,30.13,53.9,9.17,3.07,13.11-11.41,3.99-14.46-14.82-4.96-23.18-20.27-19.66-35.45,2.18-9.39-12.28-13.4-14.46-3.99h0Z"/><path class="cls-6" d="m81.11,143.24c9.65,0,9.67-15,0-15s-9.67,15,0,15h0Z"/><path class="cls-6" d="m79.07,141.7c9.65,0,9.67-15,0-15s-9.67,15,0,15h0Z"/><path class="cls-6" d="m83.66,144.77c9.65,0,9.67-15,0-15s-9.67,15,0,15h0Z"/><path class="cls-4" d="m122.14,64.65c5.3,12.48,2.21,25.74-6.9,29.61l-32.61,13.85.05.12c-4.24,1.8-5.68,7.96-3.21,13.77,1.67,3.94,4.71,6.69,7.81,7.5.18.05.37.09.55.12v.23c-.34-.07-.7-.15-1.05-.24-6.67-1.74-13.2-7.67-16.8-16.13-5.3-12.48-2.21-25.74,6.9-29.61l45.25-19.22Z"/><path class="cls-4" d="m124.03,12.65c5.3,12.48-.52,26.9-13,32.2l-44.65,18.97.05.12c-5.8,2.47-8.51,9.17-6.05,14.97,1.67,3.94,5.29,6.45,9.26,6.89.23.03.47.05.71.06v.24c-.47-.02-.93-.06-1.38-.11-8.53-.95-16.31-6.35-19.91-14.81-5.3-12.48.52-26.9,13-32.2l61.96-26.32Z"/><path class="cls-6" d="m76.67,143.2c4.47,5.78,10.84,9.8,17.8,11.91,9.26,2.8,13.22-11.68,3.99-14.46-4.56-1.38-8.07-4.02-11.18-8.05-2.48-3.21-8-2.61-10.61,0-3.17,3.17-2.49,7.39,0,10.61h0Z"/><path class="cls-6" d="m78.99,143.45c10.07,4.49,20.39,7.89,31.25,9.88,9.44,1.73,13.48-12.72,3.99-14.46-9.51-1.74-18.83-4.43-27.67-8.37-3.73-1.66-8.02-1.05-10.26,2.69-1.91,3.18-1,8.62,2.69,10.26h0Z"/><path class="cls-6" d="m100.52,152.52c5.83-.25,11.63-1.04,17.32-2.37,3.95-.92,6.28-5.43,5.24-9.23-1.11-4.04-5.27-6.16-9.23-5.24-4.42,1.03-8.8,1.64-13.33,1.83-4.05.18-7.5,3.32-7.5,7.5,0,3.93,3.43,7.68,7.5,7.5h0Z"/><path class="cls-6" d="m103.04,151.28c2.89-.4,5.77-.79,8.66-1.19,1.72-.24,3.65-2.03,4.48-3.45.94-1.61,1.34-3.98.76-5.78s-1.71-3.57-3.45-4.48c-1.91-1.01-3.66-1.05-5.78-.76-2.89.4-5.77.79-8.66,1.19-1.72.24-3.65,2.03-4.48,3.45-.94,1.61-1.34,3.98-.76,5.78s1.71,3.57,3.45,4.48c1.91,1.01,3.66,1.05,5.78.76h0Z"/><path class="cls-4" d="m23.07,90.99c15.74-6.69,33.94.7,40.65,16.49l33.31,78.41c-15.74,6.69-33.94-.7-40.65-16.49L23.07,90.99Z"/></g></svg>